<svg xmlns="http://www.w3.org/2000/svg" viewBox="0 0 180 180" fill="none">
  <rect width="180" height="180" fill="#050d14" rx="40"/>
  <g transform="translate(90, 30)">
    <!-- Sprout with leaves -->
    <path d="M0 20c-8 0-14 6-14 14 0 6 3 10 6 12-5 3-8 9-8 15v22c0 9 6 16 14 16h4c8 0 14-7 14-16v-22c0-6-3-12-8-15 3-2 6-6 6-12 0-8-6-14-14-14z" fill="#22c55e"/>
    
    <!-- Left leaf -->
    <path d="M-20 40c-3-6-6-9-12-9-3 0-6 3-6 6s3 6 6 6c3 0 6-2 9-3" stroke="#4ade80" stroke-width="4" fill="none" stroke-linecap="round"/>
    
    <!-- Right leaf -->
    <path d="M20 40c3-6 6-9 12-9 3 0 6 3 6 6s-3 6-6 6c-3 0-6-2-9-3" stroke="#4ade80" stroke-width="4" fill="none" stroke-linecap="round"/>
    
    <!-- Soil/pot -->
    <ellipse cy="110" rx="35" ry="18" fill="#14b8a6" opacity="0.9"/>
    
    <!-- IoT sensors (dots) -->
    <circle cx="-10" cy="70" r="4" fill="#22d3ee" opacity="0.95"/>
    <circle cx="10" cy="75" r="4" fill="#22d3ee" opacity="0.95"/>
    <circle cx="0" cy="85" r="4" fill="#22d3ee" opacity="0.95"/>
  </g>
  
  <!-- Tech circuit lines -->
  <g opacity="0.3" stroke="#14b8a6" stroke-width="1.5" fill="none">
    <path d="M30 100 L50 100 L50 120"/>
    <path d="M150 100 L130 100 L130 120"/>
    <circle cx="50" cy="100" r="3" fill="#14b8a6"/>
    <circle cx="130" cy="100" r="3" fill="#14b8a6"/>
  </g>
</svg>