<svg xmlns="http://www.w3.org/2000/svg" viewBox="0 0 64 64" fill="none">
  <rect width="64" height="64" fill="#050d14" rx="12"/>
  <path d="M32 14c-3 0-5 2-5 5 0 2 1 3 2 4-2 1-3 3-3 5v8c0 3 2 6 5 6h2c3 0 5-3 5-6v-8c0-2-1-4-3-5 1-1 2-2 2-4 0-3-2-5-5-5z" fill="#22c55e"/>
  <ellipse cx="32" cy="46" rx="12" ry="6" fill="#14b8a6" opacity="0.8"/>
  <circle cx="28" cy="37" r="1.5" fill="#22d3ee" opacity="0.9"/>
  <circle cx="36" cy="39" r="1.5" fill="#22d3ee" opacity="0.9"/>
  <path d="M26 19c-1-2-2-3-4-3-1 0-2 1-2 2s1 2 2 2c1 0 2-1 3-1" stroke="#4ade80" stroke-width="1.5" fill="none" stroke-linecap="round"/>
  <path d="M38 19c1-2 2-3 4-3 1 0 2 1 2 2s-1 2-2 2c-1 0-2-1-3-1" stroke="#4ade80" stroke-width="1.5" fill="none" stroke-linecap="round"/>
</svg>